<?xml version="1.0" encoding="UTF-8" standalone="no"?>
<svg width="30px" height="29px" viewBox="0 0 30 29" version="1.1" xmlns="http://www.w3.org/2000/svg" xmlns:xlink="http://www.w3.org/1999/xlink" xmlns:sketch="http://www.bohemiancoding.com/sketch/ns">
    <title>linkedin</title>
    <description>Created with Sketch (http://www.bohemiancoding.com/sketch)</description>
    <defs></defs>
    <g id="Page-1" stroke="none" stroke-width="1" fill="none" fill-rule="evenodd" sketch:type="MSPage">
        <g id="Group" sketch:type="MSLayerGroup" transform="translate(0.000000, -80.000000)" fill="#00BD9C">
            <path d="M3.00001915,80 C1.34315432,80 0,81.3420599 0,82.9976126 L0,106.034645 C0,107.690181 1.34731857,109.032258 3.00001915,109.032258 L26.9999809,109.032258 C28.6568457,109.032258 30,107.690198 30,106.034645 L30,82.9976126 C30,81.3420769 28.6526814,80 26.9999809,80 L3.00001915,80 Z M7.53338174,88.8372907 C9.11311469,88.8372907 10.0970188,87.7615548 10.0970188,86.4186454 C10.0675703,85.0454977 9.11311469,84 7.5636371,84 C6.0133527,84 5,85.0454977 5,86.4186454 C5,87.7615548 5.98350075,88.8372907 7.5039332,88.8372907 L7.53338174,88.8372907 Z M5.26786074,104.746335 L9.79890274,104.746335 L9.79890274,90.7480993 L5.26786074,90.7480993 L5.26786074,104.746335 Z M12.3064666,104.746335 L16.8375086,104.746335 L16.8375086,96.9291279 C16.8375086,96.5107631 16.8669571,96.0923983 16.9867683,95.7937439 C17.314333,94.9578428 18.0598249,94.0917035 19.3115898,94.0917035 C20.9514301,94.0917035 21.6069628,95.3762076 21.6069628,97.2571921 L21.6069628,104.746335 L26.1380048,104.746335 L26.1380048,96.7199455 C26.1380048,92.4203156 23.9027391,90.4196208 20.9211747,90.4196208 C18.476542,90.4196208 17.4034854,91.8225925 16.8076566,92.7782039 L16.8375086,92.7782039 L16.8375086,90.7480993 L12.3064666,90.7480993 C12.3657671,92.0611847 12.3064666,104.746335 12.3064666,104.746335 Z M12.3064666,104.746335" id="Rectangle-3-copy-2" sketch:type="MSShapeGroup"></path>
        </g>
    </g>
</svg>