<?xml version="1.0" encoding="UTF-8" standalone="no"?>
<svg width="30px" height="29px" viewBox="0 0 30 29" version="1.1" xmlns="http://www.w3.org/2000/svg" xmlns:xlink="http://www.w3.org/1999/xlink" xmlns:sketch="http://www.bohemiancoding.com/sketch/ns">
    <title>twitter</title>
    <description>Created with Sketch (http://www.bohemiancoding.com/sketch)</description>
    <defs></defs>
    <g id="Page-1" stroke="none" stroke-width="1" fill="none" fill-rule="evenodd" sketch:type="MSPage">
        <g id="Group" sketch:type="MSLayerGroup" fill="#00BD9C">
            <path d="M3.00001915,0 C1.34315432,0 0,1.34205988 0,2.99761257 L0,26.0346455 C0,27.6901812 1.34731857,29.0322581 3.00001915,29.0322581 L26.9999809,29.0322581 C28.6568457,29.0322581 30,27.6901982 30,26.0346455 L30,2.99761257 C30,1.34207686 28.6526814,0 26.9999809,0 L3.00001915,0 Z M25,8.23774339 C24.2641748,8.56812785 23.4733495,8.79144691 22.6433495,8.89173166 C23.4903883,8.37772931 24.1411165,7.56385541 24.4474272,6.59397754 C23.6545631,7.06994932 22.7764563,7.41556565 21.8417961,7.60178771 C21.0933495,6.79459618 20.0269417,6.29032258 18.8467476,6.29032258 C16.1982039,6.29032258 14.2512136,8.79208566 14.8498058,11.3899079 C11.4396117,11.2167558 8.4161165,9.56321203 6.39237864,7.05059008 C5.31752427,8.91688883 5.83485437,11.3592967 7.66218447,12.5954869 C6.98966019,12.5739657 6.35679612,12.3871049 5.80368932,12.0759322 C5.75917476,14.0001613 7.12145631,15.7994397 9.09470874,16.2007753 C8.51723301,16.3598256 7.88470874,16.3962347 7.24179612,16.2718738 C7.76383495,17.9218307 9.27927184,19.1225944 11.0748058,19.1560554 C9.34970874,20.524419 7.17699029,21.1356106 5,20.8759315 C6.81582524,22.0542897 8.9726699,22.7419355 11.2898544,22.7419355 C18.9079126,22.7419355 23.2119417,16.229028 22.9525243,10.38765 C23.7543204,9.80210691 24.4499029,9.07063258 25,8.23774339 Z M25,8.23774339" id="Rectangle-3-copy" sketch:type="MSShapeGroup"></path>
        </g>
    </g>
</svg>